<svg width="50" height="50" viewBox="0 0 50 50" fill="none" xmlns="http://www.w3.org/2000/svg">
<path d="M22.6562 11.7188C22.6562 10.4199 23.7012 9.375 25 9.375C26.2988 9.375 27.3438 10.4199 27.3438 11.7188V23.75L35.6738 29.2969C36.748 30.0195 37.041 31.4746 36.2402 32.5488C35.6055 33.623 34.1504 33.916 33.0762 33.1152L23.7012 26.8652C23.0469 26.5137 22.6562 25.7812 22.6562 24.9121V11.7188ZM25 0C38.8086 0 50 11.1914 50 25C50 38.8086 38.8086 50 25 50C11.1914 50 0 38.8086 0 25C0 11.1914 11.1914 0 25 0ZM4.6875 25C4.6875 36.2207 13.7793 45.3125 25 45.3125C36.2207 45.3125 45.3125 36.2207 45.3125 25C45.3125 13.7793 36.2207 4.6875 25 4.6875C13.7793 4.6875 4.6875 13.7793 4.6875 25Z" fill="black"/>
</svg>
