<svg width="50" height="50" viewBox="0 0 50 50" fill="none" xmlns="http://www.w3.org/2000/svg">
<path fill-rule="evenodd" clip-rule="evenodd" d="M9.26562 39.6719C9.3094 39.2144 9.25172 38.7528 9.09669 38.3202C8.94167 37.8875 8.69312 37.4944 8.36875 37.1688C5.05625 33.8438 3.125 29.5875 3.125 25C3.125 15.025 12.5125 6.25 25 6.25C37.4875 6.25 46.875 15.025 46.875 25C46.875 34.9781 37.4875 43.75 25 43.75C22.7972 43.7532 20.6035 43.4674 18.475 42.9C17.7312 42.7007 16.94 42.783 16.2531 43.1313C15.0438 43.7438 12.3781 44.9125 8.02187 45.9219C8.62961 43.8817 9.046 41.7893 9.26562 39.6719ZM6.76562 49.3844L6.82812 49.3719C12.5469 48.2375 16.0406 46.7406 17.6656 45.9188C20.0581 46.5569 22.5239 46.8783 25 46.875C38.8063 46.875 50 37.0813 50 25C50 12.9188 38.8063 3.125 25 3.125C11.1937 3.125 0 12.9188 0 25C0 30.5 2.32188 35.5313 6.15625 39.375C5.88799 41.8441 5.3386 44.2744 4.51875 46.6188L4.50938 46.6531C4.27639 47.3246 4.02209 47.9885 3.74688 48.6438C3.5 49.225 3.97813 49.875 4.6 49.775C5.32394 49.6565 6.04591 49.5263 6.76562 49.3844ZM25 18.7281C30.2 13.3813 43.2031 22.7375 25 34.7656C6.79688 22.7344 19.8 13.3813 25 18.7281Z" fill="black"/>
</svg>
