<svg width="45" height="45" viewBox="0 0 45 45" fill="none" xmlns="http://www.w3.org/2000/svg">
<path d="M32.868 27.3861C32.868 29.2761 33.4058 30.0298 34.812 30.0298C37.9463 30.0298 39.942 26.0361 39.942 19.3941C39.942 9.24208 32.544 4.38208 23.3078 4.38208C13.806 4.38208 5.16376 10.7541 5.16376 22.7961C5.16376 34.2981 12.7238 40.5621 24.3338 40.5621C28.2758 40.5621 30.9218 40.1301 34.9695 38.7801L35.838 42.3958C31.842 43.6941 27.5715 44.0698 24.2798 44.0698C9.05176 44.0698 0.895508 35.6998 0.895508 22.7938C0.895508 9.77983 10.3478 0.923828 23.3618 0.923828C36.9158 0.923828 44.0955 9.02383 44.0955 18.9598C44.0955 27.3838 41.4518 33.8098 33.1358 33.8098C29.3535 33.8098 26.8718 32.2978 26.5478 28.9476C25.5758 32.6736 22.9838 33.8098 19.4715 33.8098C14.7735 33.8098 10.8315 30.1896 10.8315 22.9018C10.8315 15.5578 14.2898 11.0218 20.4998 11.0218C23.7938 11.0218 25.8458 12.3178 26.7593 14.3698L28.3275 11.5078H32.8635V27.3861H32.868V27.3861ZM26.2283 20.2581C26.2283 17.2903 24.012 16.0461 22.176 16.0461C20.178 16.0461 17.9663 17.6638 17.9663 22.4181C17.9663 26.1981 19.6403 28.3041 22.176 28.3041C23.958 28.3041 26.2283 27.1701 26.2283 24.0381V20.2581Z" fill="white"/>
</svg>
