<svg width="58" height="60" viewBox="0 0 58 60" fill="none" xmlns="http://www.w3.org/2000/svg">
<path d="M45.1111 50H9.66668V13.3333H30.9656L34.1878 10H9.66668C8.81209 10 7.99251 10.3512 7.38823 10.9763C6.78394 11.6014 6.44446 12.4493 6.44446 13.3333V50C6.44446 50.8841 6.78394 51.7319 7.38823 52.357C7.99251 52.9821 8.81209 53.3333 9.66668 53.3333H45.1111C45.9657 53.3333 46.7853 52.9821 47.3896 52.357C47.9939 51.7319 48.3334 50.8841 48.3334 50V25L45.1111 28.3333V50Z" fill="black"/>
<path d="M54.0206 9.73332L48.5911 4.11666C48.3502 3.86671 48.0639 3.6684 47.7487 3.53309C47.4336 3.39778 47.0957 3.32812 46.7545 3.32812C46.4132 3.32813 46.0754 3.39778 45.7602 3.53309C45.445 3.6684 45.1588 3.86671 44.9178 4.11666L22.8295 27.1L21.0411 35.1167C20.965 35.5053 20.973 35.9065 21.0646 36.2915C21.1562 36.6765 21.3292 37.0357 21.5711 37.3433C21.8129 37.6509 22.1177 37.8992 22.4634 38.0704C22.8092 38.2416 23.1873 38.3314 23.5706 38.3333C23.7687 38.3559 23.9686 38.3559 24.1667 38.3333L31.9806 36.55L54.0206 13.5333C54.2622 13.2841 54.4539 12.9879 54.5847 12.6619C54.7155 12.3359 54.7828 11.9863 54.7828 11.6333C54.7828 11.2803 54.7155 10.9308 54.5847 10.6048C54.4539 10.2787 54.2622 9.98259 54.0206 9.73332ZM30.305 33.4667L24.4084 34.8167L25.7778 28.7667L42.4045 11.45L46.9478 16.15L30.305 33.4667ZM48.7684 14.2667L44.225 9.56666L46.7222 6.93332L51.2978 11.6667L48.7684 14.2667Z" fill="black"/>
</svg>
