<svg xmlns="http://www.w3.org/2000/svg" viewBox="0 0 170.78 142.38"><defs><style>.cls-1{fill:#fff;}</style></defs><g id="Layer_2" data-name="Layer 2"><g id="Layer_1-2" data-name="Layer 1"><path class="cls-1" d="M131.4,70.77c0,17.51.13,35,0,52.53-.12,14.66-3.82,18.71-18,18.92-18.86.29-37.73.09-56.59.1-12,0-17.94-5.16-17.78-18q.68-53.19,0-106.41C38.91,5.36,43.76-.26,56.49,0,76.24.43,96,.25,115.77.08c10.65-.09,15.72,4.79,15.65,15.46C131.29,34,131.38,52.36,131.4,70.77ZM47.94,27.57v87H123v-87ZM69.79,11.71c9.66,10.45,23.57,10,29.36,0Z"/><path class="cls-1" d="M153.65,67.43c15.35-17.41,10.58-34.54,1-52.16,13,5.94,16.64,16.53,16.1,28.15C170.25,53.75,167.41,64,153.65,67.43Z"/><path class="cls-1" d="M17,67.34C3.33,64.82.87,54.31.13,44.3-.76,32.38,2.81,21.44,16.44,15.44,5.65,33.07,2.32,50,17,67.34Z"/><path class="cls-1" d="M142.47,25.62c11.69.56,12.6,8.45,12.76,16.38.17,8.15-2,15.18-12.63,17.49C148.66,47.87,150.68,36.86,142.47,25.62Z"/><path class="cls-1" d="M25.44,23.91V58c-6-.43-9.49-4-10.23-13.48C14.51,35.42,16.77,27.85,25.44,23.91Z"/></g></g></svg>