<svg width="55" height="44" viewBox="0 0 55 44" fill="none" xmlns="http://www.w3.org/2000/svg">
<path d="M43.493 10.9217C41.9487 9.18835 38.2113 5.62366 32.9484 4.81155C31.0148 4.52332 29.0477 5.12144 27.4991 6.37647C25.9531 5.19569 23.9852 4.58983 22.043 4.88546C15.1938 5.94335 10.8883 11.7037 10.7078 11.953C10.0337 12.8716 10.2325 14.1633 11.1482 14.8379C11.5014 15.0983 11.9289 15.2386 12.3677 15.2381C13.0041 15.2381 13.6301 14.9481 14.0332 14.3974C14.0681 14.3491 17.487 9.76456 22.6699 8.96362C23.3107 8.88104 23.9572 9.0212 24.5227 9.34888L19.525 14.4537C18.4594 15.5108 17.7977 16.8514 17.7977 18.4326C17.7977 19.9366 18.3831 21.3494 19.4442 22.4107C20.582 23.4772 21.9914 23.9842 23.4953 23.9842C24.9992 23.9842 26.412 23.3987 27.4751 22.3351L28.4505 21.3597L39.1239 30.0308C39.3226 30.1919 39.3522 30.482 39.1669 30.7157L36.7873 33.788C36.6288 33.9813 36.3361 34.0109 36.1723 33.8793L34.2628 32.2731L32.0121 34.6579C31.8106 34.905 31.5528 34.9641 31.4186 34.9775C31.2763 34.9909 31.0265 34.9882 30.8332 34.8298L28.0479 32.4527L26.7008 33.7123L26.4591 33.9648C25.9569 34.5799 25.2483 34.9668 24.4585 35.0476C23.6448 35.1175 22.8901 34.8972 22.353 34.4648L14.6352 27.4819H8.25V11.0248H0V32.9905L5.5 32.9939C6.50891 32.9939 7.35367 32.4176 7.83234 31.6069H13.0436L19.6659 37.5933C20.943 38.6366 22.507 39.1866 24.1312 39.1866C24.3783 39.1866 24.6281 39.1758 24.8751 39.1489C26.0456 39.0281 27.1447 38.6279 28.0952 37.9888L28.1731 38.0586C29.2069 38.9073 30.5174 39.297 31.8417 39.1569C32.9753 39.0387 34.0142 38.5526 34.7559 37.8378C36.5683 38.5414 38.7167 38.0392 40.0195 36.4224L42.3992 33.3501C43.9864 31.389 43.6856 28.4964 41.7251 26.9039L31.3868 18.5027L32.107 17.7824C32.9127 16.9766 32.9127 15.6709 32.107 14.8656C31.3014 14.0599 29.9964 14.0599 29.1903 14.8656L24.5609 19.4897C23.9937 20.0655 23.0055 20.0655 22.4383 19.4897C22.1537 19.2076 21.9979 18.8317 21.9979 18.4318C21.9979 18.0289 22.1536 17.6528 22.4517 17.355L29.8346 9.82343C30.5059 9.14925 31.427 8.81366 32.3216 8.96147C37.4564 9.75382 40.9325 14.3523 40.9669 14.4005C41.2323 14.7575 41.5912 14.9974 41.9844 15.1203H46.75V30.1679C46.75 31.6864 47.9815 32.9222 49.4227 32.9222L55 32.9991V11.0076L43.493 10.9217ZM4.125 30.2491C3.37305 30.2491 2.75 29.6264 2.75 28.8749C2.75 28.1121 3.37305 27.5008 4.125 27.5008C4.87695 27.5008 5.5 28.1178 5.5 28.8826C5.5 29.6303 4.87695 30.2491 4.125 30.2491ZM50.875 30.2491C50.123 30.2491 49.5 29.6264 49.5 28.8749C49.5 28.1121 50.123 27.5008 50.875 27.5008C51.627 27.5008 52.25 28.1124 52.25 28.8749C52.25 29.6303 51.6312 30.2491 50.875 30.2491Z" fill="black"/>
</svg>
