<svg width="35" height="41" viewBox="0 0 35 41" fill="none" xmlns="http://www.w3.org/2000/svg">
<path d="M3.43427 13.3039C2.46486 9.45423 4.88458 5.67004 8.97487 3.9726C9.70113 3.67137 10.515 3.65856 11.2503 3.93679C11.9857 4.21503 12.5873 4.76333 12.9322 5.46987L14.6318 8.94776C14.9051 9.50721 15.005 10.1355 14.9188 10.7522C14.8326 11.3688 14.5641 11.9456 14.1478 12.4087L10.4831 16.484C10.3024 16.6853 10.1769 16.93 10.1187 17.1941C10.0606 17.4583 10.0718 17.733 10.1513 17.9916L10.2027 18.1499L10.3414 18.5462C10.463 18.8798 10.6433 19.3491 10.887 19.9064C11.3705 21.0135 12.1144 22.4927 13.149 23.9422C14.1836 25.3918 15.3402 26.5768 16.229 27.3937C16.6919 27.819 17.172 28.2252 17.6682 28.6111L17.8037 28.7142C18.022 28.8729 18.2776 28.9724 18.5458 29.0029C18.8139 29.0334 19.0854 28.994 19.3337 28.8884L24.3797 26.7487C24.9531 26.5059 25.5859 26.4398 26.1971 26.559C26.8082 26.6782 27.3698 26.9773 27.8098 27.4178L30.5602 30.1696C31.7067 31.3148 31.7618 33.1555 30.6874 34.369C27.7517 37.6865 23.3756 38.7318 20.0505 36.5472C15.9741 33.8615 12.4266 30.4486 9.58548 26.4789C6.72447 22.5139 4.63758 18.0446 3.43442 13.3055L3.43427 13.3039ZM13.4293 17.881L16.4717 14.4983C17.3042 13.5723 17.8412 12.4186 18.0137 11.1854C18.1861 9.9521 17.9863 8.69542 17.4397 7.57651L15.7385 4.09878C15.0443 2.67782 13.8343 1.5751 12.3552 1.01542C10.8761 0.455731 9.23918 0.481213 7.77819 1.08667C2.69919 3.19343 -1.05056 8.29107 0.404488 14.0671C1.70372 19.1879 3.95741 24.0177 7.04732 28.3029C10.1117 32.5837 13.9376 36.264 18.3341 39.16C23.3196 42.4308 29.378 40.5671 33.0283 36.4397C34.0728 35.2593 34.6277 33.7249 34.5799 32.1494C34.532 30.574 33.8851 29.0761 32.7709 27.9612L30.0205 25.2094C29.1403 24.328 28.0168 23.7297 26.7942 23.4913C25.5716 23.2529 24.3056 23.3853 23.1588 23.8714L18.9709 25.6474C18.7584 25.4672 18.5495 25.2827 18.3445 25.094C17.3622 24.1976 16.4737 23.2035 15.6927 22.1271C14.9286 21.0383 14.2772 19.8746 13.7487 18.6539C13.637 18.3985 13.5305 18.1408 13.4293 17.881V17.881Z" fill="white"/>
</svg>
