<svg xmlns="http://www.w3.org/2000/svg" viewBox="0 0 310.13 200.09"><defs><style>.cls-1{fill:#fff;}</style></defs><title>box_background</title><g id="Layer_2" data-name="Layer 2"><g id="Layer_1-2" data-name="Layer 1"><rect class="cls-1" x="2.04" y="2.03" width="306.07" height="195.91" rx="25"/><path d="M42.86,2H33.38C13.33,2,2,13.26,2,33.2q0,67.26,0,134.53c0,18.66,11.62,30.34,30.17,30.34q122.76,0,245.53,0c18.67,0,30.34-11.59,30.34-30.17q0-67.77,0-135.53C308.08,13.69,296.48,2,277.91,2q-79.52,0-159,0h-5.62c0-.48-.07-1-.11-1.44A20.61,20.61,0,0,1,116.52,0q82,0,164,0A29.58,29.58,0,0,1,310,29.84q.18,70,0,140C310,186.94,297,200,279.92,200q-124.77.12-249.53,0C13.07,200,.08,186.92.05,169.57q-.11-69.51,0-139C.08,13.2,13.1.22,30.37,0c4.15,0,8.3,0,12.46,0C42.85.69,42.86,1.36,42.86,2Z"/></g></g></svg>