<?xml version="1.0" encoding="utf-8"?>
<!-- Generator: Adobe Illustrator 23.1.0, SVG Export Plug-In . SVG Version: 6.00 Build 0)  -->
<svg version="1.1" id="Layer_1" xmlns="http://www.w3.org/2000/svg" xmlns:xlink="http://www.w3.org/1999/xlink" x="0px" y="0px"
	 viewBox="0 0 360 360" style="enable-background:new 0 0 360 360;" xml:space="preserve">
<style type="text/css">
	.st0{fill:#FFFFFF;}
</style>
<g>
	<path class="st0" d="M340,305c-106.7,0-213.36,0-320,0c0-83.36,0-166.7,0-250c106.7,0,213.36,0,320,0C340,138.36,340,221.7,340,305
		z M67.79,81.97c-0.01-0.67-0.01-1.33-0.02-2c-4.15,0-8.3-0.04-12.46,0.01C38.05,80.17,25.02,93.15,25,110.5
		c-0.07,46.34-0.07,92.68,0,139.03c0.03,17.35,13.02,30.45,30.34,30.47c83.18,0.07,166.36,0.07,249.53-0.01
		c17.05-0.02,30.08-13.08,30.12-30.16c0.1-46.68,0.11-93.35,0-140.03c-0.04-16.49-13.09-29.72-29.5-29.77
		C250.81,79.9,196.14,79.98,141.47,80c-1.12,0-2.24,0.35-3.36,0.54c0.04,0.48,0.07,0.96,0.11,1.44c1.87,0,3.75,0,5.62,0
		c53.01,0,106.01-0.01,159.02,0c18.57,0,30.16,11.67,30.17,30.35c0.01,45.18,0.02,90.35,0,135.53
		c-0.01,18.58-11.67,30.17-30.34,30.17c-81.84,0.01-163.69,0.01-245.53,0c-18.55,0-30.17-11.68-30.17-30.34
		c-0.01-44.84-0.01-89.68,0-134.53c0-19.94,11.3-31.17,31.34-31.18C61.47,81.97,64.63,81.97,67.79,81.97z"/>
	<path d="M67.79,81.97c-3.16,0-6.32,0-9.48,0c-20.05,0.01-31.34,11.24-31.34,31.18c0,44.84-0.01,89.68,0,134.53
		c0,18.66,11.62,30.34,30.17,30.34c81.84,0.01,163.69,0.01,245.53,0c18.67,0,30.34-11.59,30.34-30.17
		c0.02-45.18,0.01-90.35,0-135.53c0-18.68-11.6-30.34-30.17-30.35c-53.01-0.01-106.01,0-159.02,0c-1.87,0-3.75,0-5.62,0
		c-0.04-0.48-0.07-0.96-0.11-1.44c1.12-0.19,2.24-0.54,3.36-0.54c54.67-0.02,109.35-0.1,164.02,0.03
		c16.4,0.04,29.46,13.27,29.5,29.77c0.12,46.68,0.11,93.35,0,140.03c-0.04,17.07-13.07,30.14-30.12,30.16
		c-83.18,0.08-166.36,0.07-249.53,0.01c-17.32-0.01-30.31-13.12-30.34-30.47c-0.07-46.34-0.07-92.68,0-139.03
		c0.03-17.34,13.05-30.32,30.32-30.51c4.15-0.05,8.3-0.01,12.46-0.01C67.78,80.64,67.79,81.31,67.79,81.97z"/>
</g>
</svg>
