<?xml version="1.0" encoding="utf-8"?>
<!-- Generator: Adobe Illustrator 23.1.0, SVG Export Plug-In . SVG Version: 6.00 Build 0)  -->
<svg version="1.1" id="Layer_1" xmlns="http://www.w3.org/2000/svg" xmlns:xlink="http://www.w3.org/1999/xlink" x="0px" y="0px"
	 viewBox="0 0 360 360" style="enable-background:new 0 0 360 360;" xml:space="preserve">
<style type="text/css">
	.st0{fill:#FFFFFF;}
</style>
<g>
	<path class="st0" d="M340,305c-106.7,0-213.36,0-320,0c0-83.36,0-166.7,0-250c106.7,0,213.36,0,320,0C340,138.36,340,221.7,340,305
		z M67.82,79.98c-4.52,0-8.51-0.04-12.49,0.01C38.05,80.17,25.02,93.14,25,110.48c-0.07,46.33-0.07,92.67,0,139
		c0.03,17.37,12.99,30.5,30.28,30.51c83.16,0.07,166.32,0.07,249.48,0c17.09-0.01,30.18-13.02,30.23-30.04
		c0.11-46.67,0.11-93.33,0.01-140c-0.04-16.73-13.14-29.7-29.85-29.95c-5.67-0.08-11.33-0.02-17-0.02c-48.5,0-96.99,0-145.49,0.01
		c-1.46,0-2.91,0.15-4.67,0.25c0.12,1.72,0.22,3.1,0.34,4.74c2.35,0,4.33,0,6.31,0c52.5,0,104.99-0.01,157.49,0
		c17.85,0,27.9,10.03,27.91,27.83c0.01,44.67,0.01,89.33,0,134c0,18.23-9.91,28.22-28.01,28.22c-72.83,0-145.66,0-218.49,0
		c-9.5,0-19,0.1-28.5-0.03c-14.18-0.19-25-10.94-25.03-25.14c-0.09-46.67-0.11-93.33,0.01-140C30.05,95.96,40.91,85.32,54.83,85
		c3.83-0.09,7.67-0.03,11.5-0.08c0.46-0.01,0.92-0.28,1.49-0.47C67.82,83.12,67.82,81.83,67.82,79.98z"/>
	<path d="M67.82,79.98c0,1.86,0,3.14,0,4.47c-0.58,0.19-1.03,0.46-1.49,0.47c-3.83,0.05-7.67-0.01-11.5,0.08
		c-13.92,0.32-24.78,10.96-24.81,24.86c-0.12,46.67-0.1,93.33-0.01,140c0.03,14.2,10.85,24.95,25.03,25.14
		c9.5,0.13,19,0.03,28.5,0.03c72.83,0,145.66,0,218.49,0c18.1,0,28.01-9.99,28.01-28.22c0.01-44.67,0.01-89.33,0-134
		c0-17.8-10.06-27.82-27.91-27.83c-52.5-0.01-104.99,0-157.49,0c-1.98,0-3.96,0-6.31,0c-0.12-1.64-0.21-3.02-0.34-4.74
		c1.76-0.1,3.21-0.25,4.67-0.25c48.5-0.01,96.99-0.01,145.49-0.01c5.67,0,11.33-0.07,17,0.02c16.7,0.25,29.81,13.22,29.85,29.95
		c0.11,46.67,0.11,93.33-0.01,140c-0.04,17.03-13.13,30.03-30.23,30.04c-83.16,0.07-166.32,0.07-249.48,0
		c-17.29-0.01-30.25-13.15-30.28-30.51c-0.07-46.33-0.07-92.67,0-139c0.03-17.34,13.05-30.3,30.33-30.49
		C59.31,79.94,63.29,79.98,67.82,79.98z"/>
</g>
</svg>
